<svg width="40" height="40" viewBox="0 0 40 40" fill="none" xmlns="http://www.w3.org/2000/svg">
<path d="M34.875 21.9583C34.9583 21.3333 35 20.6875 35 20C35 19.3333 34.9583 18.6667 34.8542 18.0417L39.0833 14.75C39.4583 14.4583 39.5625 13.8958 39.3333 13.4792L35.3333 6.56249C35.0833 6.10415 34.5625 5.95832 34.1042 6.10415L29.125 8.10415C28.0833 7.31249 26.9792 6.64582 25.75 6.14582L25 0.854151C24.9167 0.354151 24.5 -1.52588e-05 24 -1.52588e-05H16C15.5 -1.52588e-05 15.1042 0.354151 15.0208 0.854151L14.2708 6.14582C13.0417 6.64582 11.9167 7.33332 10.8958 8.10415L5.91667 6.10415C5.45834 5.93749 4.93751 6.10415 4.68751 6.56249L0.708338 13.4792C0.458338 13.9167 0.541671 14.4583 0.958338 14.75L5.1875 18.0417C5.08334 18.6667 5.00001 19.3542 5.00001 20C5.00001 20.6458 5.04167 21.3333 5.14584 21.9583L0.916671 25.25C0.541671 25.5417 0.437505 26.1042 0.666671 26.5208L4.66667 33.4375C4.91667 33.8958 5.43751 34.0417 5.89584 33.8958L10.875 31.8958C11.9167 32.6875 13.0208 33.3542 14.25 33.8542L15 39.1458C15.1042 39.6458 15.5 40 16 40H24C24.5 40 24.9167 39.6458 24.9792 39.1458L25.7292 33.8542C26.9583 33.3542 28.0833 32.6875 29.1042 31.8958L34.0833 33.8958C34.5417 34.0625 35.0625 33.8958 35.3125 33.4375L39.3125 26.5208C39.5625 26.0625 39.4583 25.5417 39.0625 25.25L34.875 21.9583ZM20 27.5C15.875 27.5 12.5 24.125 12.5 20C12.5 15.875 15.875 12.5 20 12.5C24.125 12.5 27.5 15.875 27.5 20C27.5 24.125 24.125 27.5 20 27.5Z" fill="black"/>
</svg>
