<svg width="115" height="41" viewBox="0 0 115 41" fill="none" xmlns="http://www.w3.org/2000/svg">
<g clip-path="url(#clip0)">
<path d="M59.3723 13.5802L64.8435 13.2407C64.9683 14.0994 65.1972 14.7385 65.5716 15.1978C66.1749 15.9167 67.0071 16.2762 68.1096 16.2762C68.921 16.2762 69.5658 16.0965 70.0027 15.717C70.4188 15.4175 70.6684 14.9382 70.6684 14.4389C70.6684 13.9596 70.4396 13.5003 70.0443 13.2007C69.6283 12.8413 68.6505 12.4818 67.1111 12.1622C64.5939 11.623 62.784 10.9041 61.7231 9.98543C60.6621 9.12669 60.0588 7.86853 60.1004 6.53049C60.1004 5.61183 60.3916 4.69318 60.9325 3.93429C61.5566 3.07554 62.4096 2.39654 63.4289 2.01709C64.5315 1.55776 66.0709 1.31812 68.0056 1.31812C70.3772 1.31812 72.187 1.7375 73.4352 2.59624C74.6834 3.43502 75.4324 4.79303 75.6612 6.65031L70.2524 6.94987C70.1067 6.15104 69.8155 5.57189 69.337 5.19244C68.8585 4.813 68.2344 4.63326 67.4231 4.63326C66.7574 4.63326 66.2581 4.77306 65.9253 5.03268C65.6132 5.27233 65.4052 5.6318 65.426 6.03122C65.426 6.33078 65.5924 6.61037 65.8421 6.79011C66.1125 7.02976 66.7574 7.24943 67.7768 7.44914C70.294 7.96838 72.083 8.48762 73.1856 9.02683C74.2882 9.56604 75.0787 10.2251 75.5572 11.0039C76.0564 11.8028 76.3061 12.7214 76.2853 13.6601C76.2853 14.7784 75.9524 15.8968 75.2867 16.8354C74.6002 17.814 73.6433 18.5729 72.5199 19.0322C71.3341 19.5315 69.8363 19.7911 68.0472 19.7911C64.8851 19.7911 62.7008 19.2119 61.4734 18.0337C60.246 16.8554 59.5179 15.3775 59.3723 13.5802ZM1.3106 19.4915V1.63765H10.9009C12.6691 1.63765 14.0421 1.77744 14.9783 2.077C15.8936 2.3566 16.705 2.93575 17.2458 3.71461C17.8491 4.57335 18.1404 5.57189 18.1196 6.61037C18.182 8.3678 17.2458 10.0453 15.644 10.9241C15.0199 11.2636 14.3334 11.5032 13.6261 11.623C14.1462 11.7628 14.6662 12.0025 15.1239 12.2821C15.4776 12.5617 15.7688 12.8812 16.0393 13.2207C16.3513 13.5602 16.6217 13.9396 16.8506 14.3391L19.6382 19.5115H13.106L10.0271 14.0195C9.63188 13.3205 9.29902 12.8612 8.98698 12.6415C8.57091 12.362 8.07164 12.2222 7.57236 12.2222H7.07308V19.4715H1.3106V19.4915ZM7.07308 8.86707H9.50706C10.0271 8.82713 10.5264 8.74724 11.0257 8.62742C11.4001 8.56751 11.733 8.3678 11.9618 8.06824C12.5235 7.34929 12.4403 6.33078 11.7538 5.71169C11.3793 5.41212 10.6512 5.25236 9.61107 5.25236H7.07308V8.86707ZM0 34.7891L5.47124 34.4496C5.59606 35.3084 5.82489 35.9474 6.19935 36.4068C6.78184 37.1257 7.63477 37.5052 8.73734 37.5052C9.54866 37.5052 10.1936 37.3254 10.6304 36.946C11.0465 36.6264 11.2961 36.1671 11.2961 35.6678C11.2961 35.1885 11.0673 34.7292 10.672 34.4297C10.256 34.0702 9.27822 33.7107 7.71798 33.3912C5.2008 32.852 3.39092 32.133 2.32996 31.2144C1.26899 30.3556 0.665702 29.0975 0.707308 27.7594C0.707308 26.8408 0.998553 25.9221 1.53944 25.1632C2.16353 24.3045 3.01646 23.6255 4.03582 23.246C5.13839 22.7867 6.67782 22.547 8.61252 22.547C10.9841 22.547 12.794 22.9664 14.0421 23.8252C15.2903 24.6839 16.0185 26.022 16.2473 27.8792L10.8385 28.1788C10.6928 27.38 10.4016 26.8008 9.92312 26.4214C9.46545 26.0419 8.82055 25.8622 8.00923 25.8822C7.34352 25.8822 6.84425 26.022 6.5114 26.3015C6.17855 26.5412 5.99132 26.9007 6.01212 27.3001C6.01212 27.5996 6.17855 27.8792 6.42818 28.059C6.69863 28.2986 7.34352 28.5183 8.36288 28.718C10.8801 29.2373 12.6691 29.7565 13.7717 30.2957C14.8743 30.8349 15.6648 31.494 16.1433 32.2728C16.6425 33.0716 16.8922 33.9903 16.8922 34.909C16.8922 36.0273 16.5385 37.1257 15.8936 38.0643C15.2071 39.0429 14.2502 39.8018 13.1268 40.2611C11.941 40.7604 10.4432 41.02 8.65412 41.02C5.49204 41.02 3.30771 40.4409 2.08032 39.2626C0.852931 38.0643 0.166425 36.5865 0 34.7891H0Z" fill="white"/>
<path d="M27.6682 33.3912L32.7026 34.8491C32.4322 36.0673 31.8705 37.2256 31.1007 38.2441C30.3934 39.1428 29.4573 39.8418 28.3963 40.3011C27.3146 40.7605 25.9416 41.0001 24.2773 41.0001C22.2594 41.0001 20.5951 40.7205 19.3261 40.1613C18.0363 39.6022 16.9338 38.6036 15.9976 37.1857C15.0615 35.7678 14.6038 33.9504 14.6038 31.7337C14.6038 28.778 15.4151 26.5013 17.0586 24.9236C18.702 23.346 21.0112 22.5471 24.0069 22.5471C26.3576 22.5471 28.1883 23.0064 29.5405 23.9051C30.8719 24.8238 31.8705 26.2217 32.5362 28.099L27.4602 29.1774C27.3354 28.758 27.1481 28.3386 26.8985 27.9792C26.5865 27.5598 26.1912 27.2403 25.7127 27.0006C25.2343 26.761 24.6934 26.6611 24.1525 26.6611C22.8419 26.6611 21.8433 27.1604 21.1568 28.1789C20.6367 28.9178 20.3663 30.0961 20.3663 31.6937C20.3663 33.6708 20.6784 35.0289 21.3024 35.7678C21.9265 36.5067 22.8003 36.8662 23.9445 36.8662C25.047 36.8662 25.8791 36.5666 26.4408 35.9874C27.0025 35.3684 27.4186 34.5096 27.6682 33.3912ZM39.422 22.8467H45.1637V29.0975H51.4463V22.8467H57.2296V40.7006H51.4463V33.4711H45.1637V40.7006H39.422V22.8467Z" fill="white"/>
<path d="M56.439 31.7736C56.439 28.8578 57.292 26.5812 58.977 24.9635C60.6621 23.3459 63.0336 22.5271 66.0501 22.5271C69.1498 22.5271 71.5213 23.3259 73.2064 24.9236C74.8915 26.5213 75.7236 28.758 75.7236 31.6338C75.7236 33.7307 75.3491 35.4282 74.621 36.7663C73.9137 38.0843 72.8111 39.1627 71.4589 39.8817C70.0651 40.6206 68.3385 41.0001 66.2789 41.0001C64.1778 41.0001 62.4512 40.6805 61.0781 40.0415C59.6635 39.3625 58.4985 38.304 57.7288 37.0059C56.8759 35.608 56.439 33.8705 56.439 31.7736ZM62.1807 31.7935C62.1807 33.5909 62.5344 34.889 63.2209 35.6878C63.9074 36.4667 64.8643 36.8661 66.0709 36.8661C67.2983 36.8661 68.2552 36.4867 68.9417 35.7078C69.6283 34.9289 69.9611 33.551 69.9611 31.5539C69.9611 29.8763 69.6075 28.6382 68.9001 27.8793C68.1928 27.1004 67.2359 26.721 66.0293 26.721C64.9683 26.681 63.949 27.1204 63.2417 27.8992C62.5344 28.6781 62.1807 29.9762 62.1807 31.7935ZM81.6109 31.7736C81.6109 28.8578 82.4638 26.5812 84.1489 24.9635C85.8339 23.3459 88.2055 22.5271 91.222 22.5271C94.3216 22.5271 96.714 23.3259 98.3783 24.9236C100.043 26.5213 100.895 28.758 100.895 31.6338C100.895 33.7307 100.521 35.4282 99.7929 36.7663C99.0856 38.0843 97.983 39.1627 96.6308 39.8817C95.237 40.6206 93.5103 41.0001 91.4508 41.0001C89.3497 41.0001 87.623 40.6805 86.25 40.0415C84.8354 39.3625 83.6704 38.304 82.9007 37.0059C82.0478 35.608 81.6109 33.8705 81.6109 31.7736ZM87.3526 31.7935C87.3526 33.5909 87.7062 34.889 88.3927 35.6878C89.0792 36.4667 90.0362 36.8661 91.2428 36.8661C92.4702 36.8661 93.4271 36.4867 94.1136 35.7078C94.8001 34.9289 95.133 33.551 95.133 31.5539C95.133 29.8763 94.7793 28.6382 94.072 27.8793C93.3647 27.1004 92.4077 26.721 91.2012 26.721C90.1402 26.681 89.1 27.1204 88.4135 27.8992C87.7062 28.6781 87.3526 29.9762 87.3526 31.7935Z" fill="white"/>
<path d="M100.292 22.8467H106.034V36.307H115V40.7006H100.271V22.8467H100.292Z" fill="white"/>
<path d="M93.9636 21.8161C99.7442 17.6342 101.527 10.5453 97.945 5.98249C94.3632 1.41969 86.7735 1.1109 80.9929 5.29278C75.2122 9.47466 73.4297 16.5636 77.0114 21.1264C80.5932 25.6892 88.1829 25.998 93.9636 21.8161Z" fill="white"/>
<path d="M93.9636 21.8164C99.7442 17.6345 101.527 10.5455 97.945 5.98273C94.3632 1.41994 86.7735 1.11115 80.9929 5.29303C75.2122 9.47491 73.4297 16.5639 77.0114 21.1267C80.5932 25.6894 88.1829 25.9982 93.9636 21.8164Z" fill="white"/>
<path d="M81.6317 12.2421L83.712 10.8441L86.2708 14.339C86.7077 14.8982 87.0405 15.4973 87.2902 16.1563C87.4358 16.6556 87.3942 17.1948 87.1861 17.6741C86.9157 18.2732 86.4788 18.7725 85.8963 19.132C85.2098 19.5913 84.6274 19.8509 84.1281 19.9308C83.6496 20.0107 83.1503 19.9308 82.6927 19.7311C82.1934 19.4915 81.7565 19.1519 81.4237 18.7126L83.2127 17.1149C83.3584 17.3346 83.5456 17.5343 83.7536 17.6941C83.8992 17.7939 84.0657 17.8538 84.2529 17.8538C84.3985 17.8538 84.5441 17.7939 84.6482 17.7141C84.8562 17.5942 85.0018 17.3546 84.981 17.1149C84.9186 16.7754 84.773 16.4359 84.5441 16.1763L81.6317 12.2421ZM87.8726 14.4588L89.7657 13.0209C89.9738 13.2606 90.2442 13.4403 90.5355 13.5402C90.9515 13.66 91.3884 13.5801 91.742 13.3205C91.9917 13.1607 92.1997 12.941 92.2829 12.6614C92.4077 12.302 92.1997 11.9026 91.8253 11.7827C91.7628 11.7628 91.7004 11.7428 91.638 11.7428C91.3884 11.7228 90.9515 11.8227 90.3066 12.0823C89.2457 12.5017 88.4135 12.6614 87.7894 12.6015C87.1861 12.5416 86.6245 12.2421 86.2916 11.7428C86.042 11.4033 85.9171 11.0039 85.8963 10.6045C85.8963 10.1451 86.0212 9.6858 86.2916 9.30636C86.6869 8.76714 87.1653 8.30782 87.7478 7.94834C88.6216 7.36919 89.3913 7.0896 90.057 7.0896C90.7227 7.0896 91.3468 7.38916 91.9293 8.00825L90.057 9.42618C89.6825 8.96685 88.9752 8.867 88.4967 9.22647L88.4343 9.28638C88.2263 9.40621 88.0807 9.58595 87.9975 9.80562C87.9351 9.96539 87.9767 10.1451 88.0807 10.2849C88.1639 10.3848 88.2887 10.4647 88.4343 10.4647C88.6008 10.4846 88.892 10.4047 89.3081 10.225C90.3482 9.80562 91.1388 9.56598 91.6796 9.48609C92.1373 9.40621 92.6158 9.44615 93.0526 9.62589C93.4479 9.78565 93.7808 10.0652 94.0096 10.4047C94.3008 10.8042 94.4673 11.2835 94.4881 11.7827C94.5089 12.302 94.3632 12.8012 94.072 13.2406C93.6975 13.7798 93.2191 14.2391 92.6574 14.5986C91.5132 15.3575 90.5771 15.677 89.8281 15.5572C89.0168 15.4374 88.3511 15.038 87.8726 14.4588Z" fill="#7C6A6A"/>
</g>
<defs>
<clipPath id="clip0">
<rect width="115" height="41" fill="white"/>
</clipPath>
</defs>
</svg>
